<svg width="32" height="32" viewBox="0 0 32 32" fill="none" xmlns="http://www.w3.org/2000/svg">
<rect width="32" height="32" rx="16" fill="#0052FF"/>
<path d="M16 28C22.6274 28 28 22.6274 28 16C28 9.37258 22.6274 4 16 4C9.37258 4 4 9.37258 4 16C4 22.6274 9.37258 28 16 28Z" fill="#0052FF"/>
<path d="M16 21.5C14.0109 21.5 12.4 19.8891 12.4 17.9V14.1C12.4 12.1109 14.0109 10.5 16 10.5C17.9891 10.5 19.6 12.1109 19.6 14.1V17.9C19.6 19.8891 17.9891 21.5 16 21.5ZM16 12.1C14.8954 12.1 14 13.0109 14 14.1V17.9C14 19.0046 14.8954 19.9 16 19.9C17.1046 19.9 18 19.0046 18 17.9V14.1C18 13.0109 17.1046 12.1 16 12.1Z" fill="white"/>
<rect x="13.5" y="13.5" width="5" height="5" rx="0.5" fill="white"/>
</svg>