<svg width="32" height="32" viewBox="0 0 32 32" fill="none" xmlns="http://www.w3.org/2000/svg">
<path d="M30.0389 1.34375L18.2139 10.2188L20.6139 4.66875L30.0389 1.34375Z" fill="#E2761B" stroke="#E2761B" stroke-width="0.25" stroke-linecap="round" stroke-linejoin="round"/>
<path d="M1.95703 1.34375L13.6882 10.2938L11.382 4.66875L1.95703 1.34375Z" fill="#E4761B" stroke="#E4761B" stroke-width="0.25" stroke-linecap="round" stroke-linejoin="round"/>
<path d="M25.6641 23.0938L22.5391 27.6938L29.4891 29.6438L31.5141 23.2188L25.6641 23.0938Z" fill="#E4761B" stroke="#E4761B" stroke-width="0.25" stroke-linecap="round" stroke-linejoin="round"/>
<path d="M0.507812 23.2188L2.51406 29.6438L9.46406 27.6938L6.33906 23.0938L0.507812 23.2188Z" fill="#E4761B" stroke="#E4761B" stroke-width="0.25" stroke-linecap="round" stroke-linejoin="round"/>
<path d="M9.13281 14.2188L7.01406 17.3438L13.8891 17.6688L13.6391 10.2188L9.13281 14.2188Z" fill="#E4761B" stroke="#E4761B" stroke-width="0.25" stroke-linecap="round" stroke-linejoin="round"/>
<path d="M22.8633 14.2188L18.2883 10.1438L18.2133 17.6688L24.9883 17.3438L22.8633 14.2188Z" fill="#E4761B" stroke="#E4761B" stroke-width="0.25" stroke-linecap="round" stroke-linejoin="round"/>
<path d="M9.46406 27.6938L13.6391 25.6938L10.0391 23.2688L9.46406 27.6938Z" fill="#E4761B" stroke="#E4761B" stroke-width="0.25" stroke-linecap="round" stroke-linejoin="round"/>
<path d="M18.3594 25.6938L22.5344 27.6938L21.9594 23.2688L18.3594 25.6938Z" fill="#E4761B" stroke="#E4761B" stroke-width="0.25" stroke-linecap="round" stroke-linejoin="round"/>
<path d="M22.5391 27.6938L18.3641 25.6938L18.6891 28.3438L18.6516 29.5938L22.5391 27.6938Z" fill="#D7C1B3" stroke="#D7C1B3" stroke-width="0.25" stroke-linecap="round" stroke-linejoin="round"/>
<path d="M9.46406 27.6938L13.3516 29.5938L13.3266 28.3438L13.6391 25.6938L9.46406 27.6938Z" fill="#D7C1B3" stroke="#D7C1B3" stroke-width="0.25" stroke-linecap="round" stroke-linejoin="round"/>
<path d="M13.4141 21.2188L10.0141 20.1938L12.2391 19.1938L13.4141 21.2188Z" fill="#233447" stroke="#233447" stroke-width="0.25" stroke-linecap="round" stroke-linejoin="round"/>
<path d="M18.5859 21.2188L19.7609 19.1938L21.9859 20.1938L18.5859 21.2188Z" fill="#233447" stroke="#233447" stroke-width="0.25" stroke-linecap="round" stroke-linejoin="round"/>
<path d="M9.46406 27.6938L10.0766 23.0938L6.33906 23.2188L9.46406 27.6938Z" fill="#CD6116" stroke="#CD6116" stroke-width="0.25" stroke-linecap="round" stroke-linejoin="round"/>
<path d="M21.9219 23.0938L22.5344 27.6938L25.6594 23.2188L21.9219 23.0938Z" fill="#CD6116" stroke="#CD6116" stroke-width="0.25" stroke-linecap="round" stroke-linejoin="round"/>
<path d="M24.9883 17.3438L18.2133 17.6688L18.5883 21.2188L19.7633 19.1938L21.9883 20.1938L24.9883 17.3438Z" fill="#CD6116" stroke="#CD6116" stroke-width="0.25" stroke-linecap="round" stroke-linejoin="round"/>
<path d="M10.0141 20.1938L12.2391 19.1938L13.4141 21.2188L13.7891 17.6688L7.01406 17.3438L10.0141 20.1938Z" fill="#CD6116" stroke="#CD6116" stroke-width="0.25" stroke-linecap="round" stroke-linejoin="round"/>
<path d="M7.01406 17.3438L10.0391 23.2688L10.0141 20.1938L7.01406 17.3438Z" fill="#E4751F" stroke="#E4751F" stroke-width="0.25" stroke-linecap="round" stroke-linejoin="round"/>
<path d="M21.9883 20.1938L21.9633 23.2688L24.9883 17.3438L21.9883 20.1938Z" fill="#E4751F" stroke="#E4751F" stroke-width="0.25" stroke-linecap="round" stroke-linejoin="round"/>
<path d="M13.7891 17.6688L13.4141 21.2188L13.8891 25.4688L13.9891 20.0188L13.7891 17.6688Z" fill="#E4751F" stroke="#E4751F" stroke-width="0.25" stroke-linecap="round" stroke-linejoin="round"/>
<path d="M18.2133 17.6688L18.0133 20.0063L18.1133 25.4688L18.4883 21.2188L18.2133 17.6688Z" fill="#E4751F" stroke="#E4751F" stroke-width="0.25" stroke-linecap="round" stroke-linejoin="round"/>
<path d="M18.5859 21.2188L18.2109 25.4688L18.3609 25.6938L21.9609 23.2688L21.9859 20.1938L18.5859 21.2188Z" fill="#F6851B" stroke="#F6851B" stroke-width="0.25" stroke-linecap="round" stroke-linejoin="round"/>
<path d="M10.0141 20.1938L10.0391 23.2688L13.6391 25.6938L13.7891 25.4688L13.4141 21.2188L10.0141 20.1938Z" fill="#F6851B" stroke="#F6851B" stroke-width="0.25" stroke-linecap="round" stroke-linejoin="round"/>
<path d="M18.6516 29.5938L18.6891 28.3438L18.3891 28.0688H13.6141L13.3266 28.3438L13.3516 29.5938L9.46406 27.6938L10.8391 28.8438L13.5766 30.7188H18.4266L21.1641 28.8438L22.5391 27.6938L18.6516 29.5938Z" fill="#C0AD9E" stroke="#C0AD9E" stroke-width="0.25" stroke-linecap="round" stroke-linejoin="round"/>
<path d="M18.3594 25.6938L18.2094 25.4688H13.7891L13.6391 25.6938L13.3266 28.3438L13.6141 28.0688H18.3891L18.6891 28.3438L18.3594 25.6938Z" fill="#161616" stroke="#161616" stroke-width="0.25" stroke-linecap="round" stroke-linejoin="round"/>
<path d="M30.5391 10.7688L32.0016 4.24375L30.0391 1.34375L18.3641 9.86875L22.8641 14.2188L29.1516 16.0938L30.6141 14.3938L29.9766 13.9438L31.3516 12.7188L30.5391 12.0938L31.9141 11.0688L30.5391 10.7688Z" fill="#763D16" stroke="#763D16" stroke-width="0.25" stroke-linecap="round" stroke-linejoin="round"/>
<path d="M0 4.24375L1.46406 10.7688L0.0765625 11.0688L1.45156 12.0938L0.639062 12.7188L2.01406 13.9438L1.37656 14.3938L2.83906 16.0938L9.12656 14.2188L13.6266 9.86875L1.95156 1.34375L0 4.24375Z" fill="#763D16" stroke="#763D16" stroke-width="0.25" stroke-linecap="round" stroke-linejoin="round"/>
<path d="M29.1516 16.0938L22.8641 14.2188L24.9891 17.3438L21.9641 23.2688L25.6641 23.2188H31.5141L29.1516 16.0938Z" fill="#F6851B" stroke="#F6851B" stroke-width="0.25" stroke-linecap="round" stroke-linejoin="round"/>
<path d="M9.13281 14.2188L2.84531 16.0938L0.507812 23.2188H6.33906L10.0391 23.2688L7.01406 17.3438L9.13281 14.2188Z" fill="#F6851B" stroke="#F6851B" stroke-width="0.25" stroke-linecap="round" stroke-linejoin="round"/>
<path d="M18.2133 17.6688L18.3641 9.86875L20.6141 4.66875H11.382L13.6266 9.86875L13.7891 17.6688L13.8766 20.0313L13.8891 25.4688H18.1133L18.1258 20.0313L18.2133 17.6688Z" fill="#F6851B" stroke="#F6851B" stroke-width="0.25" stroke-linecap="round" stroke-linejoin="round"/>
</svg>