<svg width="32" height="32" viewBox="0 0 32 32" fill="none" xmlns="http://www.w3.org/2000/svg">
<rect width="32" height="32" rx="8" fill="#4F46E5"/>
<path d="M6 12C6 9.79086 7.79086 8 10 8H22C24.2091 8 26 9.79086 26 12V20C26 22.2091 24.2091 24 22 24H10C7.79086 24 6 22.2091 6 20V12Z" fill="#4F46E5"/>
<path d="M8 12C8 10.8954 8.89543 10 10 10H22C23.1046 10 24 10.8954 24 12V20C24 21.1046 23.1046 22 22 22H10C8.89543 22 8 21.1046 8 20V12Z" fill="white"/>
<rect x="18" y="14" width="4" height="4" rx="2" fill="#4F46E5"/>
<path d="M10 6H20V8H10V6Z" fill="#6B7280"/>
</svg>