<svg width="32" height="32" viewBox="0 0 32 32" fill="none" xmlns="http://www.w3.org/2000/svg">
<rect width="32" height="32" rx="16" fill="#3B99FC"/>
<path d="M9.6 12.8C13.2 9.2 18.8 9.2 22.4 12.8L22.8 13.2C23 13.4 23 13.8 22.8 14L21.8 15C21.6 15.2 21.2 15.2 21 15L20.4 14.4C18 12 14 12 11.6 14.4L11 15C10.8 15.2 10.4 15.2 10.2 15L9.2 14C9 13.8 9 13.4 9.2 13.2L9.6 12.8ZM25.2 15.6L26.1 16.5C26.3 16.7 26.3 17.1 26.1 17.3L19.3 24.1C19.1 24.3 18.7 24.3 18.5 24.1L16 21.6C15.9 21.5 15.7 21.5 15.6 21.6L13.1 24.1C12.9 24.3 12.5 24.3 12.3 24.1L5.5 17.3C5.3 17.1 5.3 16.7 5.5 16.5L6.4 15.6C6.6 15.4 7 15.4 7.2 15.6L12.8 21.2C12.9 21.3 13.1 21.3 13.2 21.2L18.8 15.6C19 15.4 19.4 15.4 19.6 15.6L25.2 15.6Z" fill="white"/>
</svg>